<?xml version="1.0" encoding="UTF-8" standalone="no"?><!DOCTYPE svg PUBLIC "-//W3C//DTD SVG 1.1//EN" "http://www.w3.org/Graphics/SVG/1.1/DTD/svg11.dtd"><svg width="100%" height="100%" viewBox="0 0 1920 1080" version="1.1" xmlns="http://www.w3.org/2000/svg" xmlns:xlink="http://www.w3.org/1999/xlink" xml:space="preserve" xmlns:serif="http://www.serif.com/" style="fill-rule:evenodd;clip-rule:evenodd;stroke-linecap:round;stroke-linejoin:round;stroke-miterlimit:1.5;"><rect id="_1_factory" serif:id="1_factory" x="0" y="0" width="1920" height="1080" style="fill:none;"/><g><path d="M1271.33,435.401l0,391.569l-719.472,0l0,-391.569c0,-11.375 9.235,-20.609 20.609,-20.609l678.254,-0c11.375,-0 20.609,9.234 20.609,20.609Z" style="fill:none;stroke:#000;stroke-width:8px;"/><path d="M729.173,358.556l0,56.236l-118.208,-0l-0,-56.236c-0,-1.634 1.326,-2.96 2.96,-2.96l112.289,-0c1.633,-0 2.959,1.326 2.959,2.96Z" style="fill:none;stroke:#000;stroke-width:8px;"/><path d="M658.7,329.657c2.588,-7.617 10.914,-13.33 20.529,-13.33c9.616,0 17.942,5.713 20.529,13.33c8.691,-0.095 17.181,5.409 20.153,13.804c1.447,4.088 0.144,12.135 0.144,12.135l-81.652,-0c0,-0 -1.302,-8.047 0.145,-12.135c2.971,-8.395 11.462,-13.899 20.152,-13.804Z" style="fill:none;stroke:#000;stroke-width:8px;stroke-linejoin:miter;stroke-miterlimit:5;"/><path d="M708.957,188.323c3.913,-12.448 17.526,-21.962 33.345,-21.962c15.819,0 29.432,9.514 33.345,21.962c13.699,-3.113 29.481,2.953 37.391,15.53c7.909,12.576 5.74,28.156 -4.046,37.491c9.786,9.335 11.955,24.915 4.046,37.492c-7.91,12.576 -23.692,18.642 -37.391,15.529c-3.913,12.448 -17.526,21.962 -33.345,21.962c-15.819,0 -29.432,-9.514 -33.345,-21.962c-13.7,3.113 -29.481,-2.953 -37.391,-15.529c-7.909,-12.577 -5.74,-28.157 4.046,-37.492c-9.786,-9.335 -11.955,-24.915 -4.046,-37.491c7.91,-12.577 23.691,-18.643 37.391,-15.53Z" style="fill:none;stroke:#000;stroke-width:8px;stroke-linejoin:miter;stroke-miterlimit:5;"/></g></svg>