<?xml version="1.0" encoding="UTF-8" standalone="no"?><!DOCTYPE svg PUBLIC "-//W3C//DTD SVG 1.1//EN" "http://www.w3.org/Graphics/SVG/1.1/DTD/svg11.dtd"><svg width="100%" height="100%" viewBox="0 0 1920 1081" version="1.1" xmlns="http://www.w3.org/2000/svg" xmlns:xlink="http://www.w3.org/1999/xlink" xml:space="preserve" xmlns:serif="http://www.serif.com/" style="fill-rule:evenodd;clip-rule:evenodd;stroke-linecap:round;stroke-linejoin:round;stroke-miterlimit:1.5;"><rect id="_2_3_gbat" serif:id="2_3_gbat" x="0" y="0.402" width="1920" height="1080" style="fill:none;"/><g><path d="M1028.19,488.949l0,-29.487c0,-2.759 -2.24,-5 -5,-5l-64.588,0c-2.759,0 -5,2.241 -5,5l0,29.487l74.588,0Z" style="fill:none;stroke:#000;stroke-width:8px;"/><path d="M1055.46,495.406l0,286.241c0,3.563 -2.893,6.456 -6.456,6.456l-116.213,0c-3.563,0 -6.456,-2.893 -6.456,-6.456l-0,-286.241c-0,-3.564 2.893,-6.457 6.456,-6.457l116.213,0c3.563,0 6.456,2.893 6.456,6.457Z" style="fill:none;stroke:#000;stroke-width:8px;"/><path d="M1028.19,587.414l-47.243,78.687l-27.345,-30.849" style="fill:none;stroke:#fff;stroke-width:8px;"/><path d="M1028.19,587.414l-47.243,78.687l-27.345,-30.849" style="fill:none;stroke:#000;stroke-width:8px;"/></g></svg>