<?xml version="1.0" encoding="UTF-8" standalone="no"?><!DOCTYPE svg PUBLIC "-//W3C//DTD SVG 1.1//EN" "http://www.w3.org/Graphics/SVG/1.1/DTD/svg11.dtd"><svg width="100%" height="100%" viewBox="0 0 1920 1081" version="1.1" xmlns="http://www.w3.org/2000/svg" xmlns:xlink="http://www.w3.org/1999/xlink" xml:space="preserve" xmlns:serif="http://www.serif.com/" style="fill-rule:evenodd;clip-rule:evenodd;stroke-linecap:round;stroke-linejoin:round;stroke-miterlimit:1.5;"><rect id="_4_bms" serif:id="4_bms" x="0" y="0.098" width="1920" height="1080" style="fill:none;"/><path d="M1381.12,307.419l0,587.928c0,18.027 -14.636,32.662 -32.663,32.662l-626.519,0c-18.027,0 -32.663,-14.635 -32.663,-32.662l0,-587.928c0,-18.027 14.636,-32.663 32.663,-32.663l626.519,-0c18.027,-0 32.663,14.636 32.663,32.663Z" style="fill:none;stroke:#000;stroke-width:8px;"/><g transform="matrix(64.0401,0,0,64.0401,1185.3,345.352)"></g><text x="808.161px" y="345.352px" style="font-family:'Arial-BoldMT', 'Arial';font-weight:700;font-size:64.04px;">F<tspan x="843.746px 889.994px " y="345.352px 345.352px ">AB</tspan>BS BMS</text><path d="M1216.41,274.756l-0,90.383c-0,2.759 -2.241,5 -5,5l-434.194,-0c-2.759,-0 -5,-2.241 -5,-5l0,-90.383l444.194,-0Z" style="fill:none;stroke:#000;stroke-width:8px;"/><path d="M837.852,369.966l-0,83.381" style="fill:none;stroke:#000;stroke-width:8px;stroke-linecap:butt;stroke-linejoin:miter;stroke-miterlimit:5;"/><path d="M997.53,369.966l-1.072,83.381" style="fill:none;stroke:#000;stroke-width:8px;stroke-linecap:butt;stroke-linejoin:miter;stroke-miterlimit:5;"/><path d="M994.314,784.566l0,56.775l302.784,-0l-0.928,-510.892l-79.759,-0" style="fill:none;stroke:#000;stroke-width:8px;stroke-linecap:butt;stroke-miterlimit:5;"/><path d="M838.604,788.783l0,84.483l490.802,0l0,-566.535l-112.995,-0" style="fill:none;stroke:#000;stroke-width:8px;stroke-linecap:butt;stroke-miterlimit:5;"/><path d="M1152.92,374.66l0,78.687" style="fill:none;stroke:#000;stroke-width:8px;stroke-linecap:butt;stroke-linejoin:miter;stroke-miterlimit:5;"/><path d="M1150.99,791.049l0,23.291l111.07,0l-0,-464.008l-45.651,0" style="fill:none;stroke:#000;stroke-width:8px;stroke-linecap:butt;stroke-miterlimit:5;"/></svg>