<?xml version="1.0" encoding="UTF-8" standalone="no"?><!DOCTYPE svg PUBLIC "-//W3C//DTD SVG 1.1//EN" "http://www.w3.org/Graphics/SVG/1.1/DTD/svg11.dtd"><svg width="100%" height="100%" viewBox="0 0 1920 1081" version="1.1" xmlns="http://www.w3.org/2000/svg" xmlns:xlink="http://www.w3.org/1999/xlink" xml:space="preserve" xmlns:serif="http://www.serif.com/" style="fill-rule:evenodd;clip-rule:evenodd;stroke-linecap:round;stroke-linejoin:round;stroke-miterlimit:5;"><rect id="_5_stars" serif:id="5_stars" x="0" y="0.03" width="1920" height="1080" style="fill:none;"/><path d="M1153.18,600.86l10.073,27.222l27.221,10.072l-27.221,10.073l-10.073,27.221l-10.072,-27.221l-27.222,-10.073l27.222,-10.072l10.072,-27.222Z" style="fill:none;stroke:#000;stroke-width:8px;"/><path d="M837.576,600.86l10.073,27.222l27.221,10.072l-27.221,10.073l-10.073,27.221l-10.073,-27.221l-27.221,-10.073l27.221,-10.072l10.073,-27.222Z" style="fill:none;stroke:#000;stroke-width:8px;"/><path d="M997.479,600.86l10.073,27.222l27.221,10.072l-27.221,10.073l-10.073,27.221l-10.073,-27.221l-27.221,-10.073l27.221,-10.072l10.073,-27.222Z" style="fill:none;stroke:#000;stroke-width:8px;"/></svg>