<?xml version="1.0" encoding="utf-8"?>
<!-- Generator: Adobe Illustrator 22.1.0, SVG Export Plug-In . SVG Version: 6.00 Build 0)  -->
<svg version="1.1" id="Layer_1" xmlns="http://www.w3.org/2000/svg" xmlns:xlink="http://www.w3.org/1999/xlink" x="0px" y="0px"
	 viewBox="0 0 24 24" style="enable-background:new 0 0 24 24;" xml:space="preserve">
<style type="text/css">
	.st0{fill:#FFFFFF;}
</style>
<path class="st0" d="M19,0H5C2.2,0,0,2.2,0,5v14c0,2.8,2.2,5,5,5h14c2.8,0,5-2.2,5-5V5C24,2.2,21.8,0,19,0z M4.7,15.5
	C4.3,15.2,4,14.6,4,14c0-0.6,0.3-1.1,0.7-1.5V15.5z M6,16c-0.2,0-0.4,0-0.7-0.1v-3.8C5.6,12,5.8,12,6,12V16z M7.3,16H6.7v-3.8
	l0.2,0.1c0.1-0.4,0.3-0.7,0.5-1L7.3,16L7.3,16z M8.7,16H8v-5.4c0.2-0.2,0.4-0.3,0.7-0.4V16z M10,16H9.3v-5.9c0.3,0,0.3,0,0.7,0
	C10,10.1,10,16,10,16z M11.3,16h-0.7v-5.7l0.3,0.1c0.1-0.2,0.3-0.4,0.4-0.6V16z M18.1,16H12V9.3c0.5-0.4,1.2-0.6,1.8-0.6
	c1.8,0,3.3,1.5,3.4,3.4c1.3-0.6,2.7,0.4,2.7,1.9C20,15.1,19.1,16,18.1,16z"/>
</svg>
